<svg xmlns="http://www.w3.org/2000/svg" width="512" height="512" viewBox="0 0 512 512" version="1.1"><path d="M 103 113.500 C 104.866 115.425, 106.617 117, 106.892 117 C 107.167 117, 105.866 115.425, 104 113.500 C 102.134 111.575, 100.383 110, 100.108 110 C 99.833 110, 101.134 111.575, 103 113.500 M 164.528 137.972 C 160.723 141.806, 157.819 145.152, 158.074 145.407 C 158.329 145.662, 161.718 142.525, 165.606 138.435 C 174.545 129.033, 173.741 128.688, 164.528 137.972 M 84 136.500 C 85.866 138.425, 87.617 140, 87.892 140 C 88.167 140, 86.866 138.425, 85 136.500 C 83.134 134.575, 81.383 133, 81.108 133 C 80.833 133, 82.134 134.575, 84 136.500 M 144.946 136.750 L 141.500 140.500 145.250 137.054 C 148.740 133.846, 149.460 133, 148.696 133 C 148.529 133, 146.842 134.688, 144.946 136.750 M 284 145.500 C 286.987 148.525, 289.657 151, 289.932 151 C 290.207 151, 287.987 148.525, 285 145.500 C 282.013 142.475, 279.343 140, 279.068 140 C 278.793 140, 281.013 142.475, 284 145.500 M 26.232 155 C 26.232 156.925, 26.438 157.713, 26.689 156.750 C 26.941 155.787, 26.941 154.213, 26.689 153.250 C 26.438 152.287, 26.232 153.075, 26.232 155 M 117.695 184.803 C 114.013 188.514, 111 191.916, 111 192.364 C 111 192.811, 114.230 189.992, 118.177 186.099 C 122.125 182.206, 125.137 178.804, 124.872 178.539 C 124.607 178.274, 121.377 181.093, 117.695 184.803 M 218.500 228 C 222.320 231.850, 225.671 235, 225.946 235 C 226.221 235, 223.320 231.850, 219.500 228 C 215.680 224.150, 212.329 221, 212.054 221 C 211.779 221, 214.680 224.150, 218.500 228 M 106.756 278.249 C 107.245 314.972, 107.576 318.348, 107.788 288.750 C 107.904 272.387, 107.662 259, 107.250 258.999 C 106.838 258.998, 106.615 267.661, 106.756 278.249 M 31.437 281.250 L 28.500 284.500 31.750 281.563 C 33.538 279.948, 35 278.485, 35 278.313 C 35 277.540, 34.175 278.221, 31.437 281.250" stroke="none" fill="#9874fc" fill-rule="evenodd"/><path d="M 107.500 32.101 C 105.300 32.611, 101.925 33.293, 100 33.618 C 98.075 33.942, 94.700 34.854, 92.500 35.644 C 90.300 36.434, 87.703 37.263, 86.728 37.487 C 83.029 38.336, 66 46.921, 66 47.937 C 66 48.521, 65.662 48.900, 65.250 48.778 C 64.577 48.578, 59.251 51.665, 58 52.979 C 57.725 53.269, 54.962 55.433, 51.859 57.790 C 48.757 60.146, 44.707 63.910, 42.859 66.153 C 41.012 68.396, 38.262 71.378, 36.750 72.781 C 35.237 74.183, 34 75.733, 34 76.224 C 34 76.715, 32.682 78.778, 31.071 80.809 C 27.950 84.743, 18.503 102, 19.470 102 C 19.787 102, 19.309 103.125, 18.408 104.500 C 17.507 105.875, 17.102 107, 17.507 107 C 17.913 107, 17.685 107.675, 17 108.500 C 16.315 109.325, 16.090 110, 16.500 110 C 16.910 110, 16.799 110.563, 16.253 111.250 C 15.139 112.655, 12.869 121.676, 12.289 127 C 11.193 137.066, 11 140.125, 11.024 147 C 11.055 155.701, 11.655 163.338, 12.522 166.068 C 12.856 167.121, 13.322 168.999, 13.556 170.241 C 13.791 171.484, 14.258 173.625, 14.593 175 C 14.928 176.375, 15.433 178.738, 15.715 180.250 C 15.996 181.763, 16.530 183, 16.901 183 C 17.271 183, 17.642 183.900, 17.725 185 C 18.064 189.501, 30.509 212.307, 33.714 214.300 C 34.421 214.740, 35 215.531, 35 216.058 C 35 218.642, 54.109 237.370, 58.308 238.901 C 58.913 239.122, 59.879 239.693, 60.454 240.170 C 61.029 240.647, 62.571 241.919, 63.879 242.998 C 65.188 244.076, 66.650 244.716, 67.129 244.420 C 67.608 244.124, 68 244.311, 68 244.836 C 68 246.857, 86.148 254.723, 95 256.539 C 95.825 256.708, 96.500 256.916, 96.500 257 C 96.500 257.441, 103.141 258.684, 106.750 258.919 C 107.720 258.982, 108 265.610, 108 288.500 L 108 318 62.750 318.077 C 37.862 318.119, 16.825 318.317, 16 318.518 C 15.175 318.719, 13.496 319.107, 12.269 319.380 C 9.249 320.054, 5.183 323.109, 4.458 325.250 C 4.132 326.212, 3.419 327, 2.874 327 C 2.328 327, 2.129 327.399, 2.430 327.887 C 2.731 328.374, 2.385 329.265, 1.661 329.866 C -0.358 331.542, -0.403 341.315, 1.590 345.204 C 2.519 347.017, 3.557 348.725, 3.896 349 C 4.399 349.407, 11.239 357.887, 21.978 371.417 C 22.815 372.471, 24.738 374.593, 26.250 376.133 C 27.762 377.673, 29 379.194, 29 379.514 C 29 379.834, 30.125 381.138, 31.500 382.412 C 32.875 383.687, 34 385.039, 34 385.418 C 34 386.098, 42.918 397.549, 47.261 402.445 C 49.577 405.056, 51.440 407.324, 57.573 415 C 59.550 417.475, 61.919 420.400, 62.836 421.500 C 63.753 422.600, 66.301 425.750, 68.497 428.500 C 70.694 431.250, 73.281 434.228, 74.246 435.117 C 75.211 436.007, 76 437.222, 76 437.818 C 76 438.413, 76.564 439.260, 77.253 439.700 C 77.942 440.140, 80.510 443.137, 82.960 446.361 C 85.410 449.584, 87.996 452.445, 88.707 452.718 C 89.418 452.991, 90 453.808, 90 454.534 C 90 455.261, 91.110 456.728, 92.466 457.795 C 93.822 458.862, 94.647 460.019, 94.299 460.367 C 93.951 460.715, 94.180 461, 94.808 461 C 95.435 461, 96.597 462.237, 97.390 463.750 C 99.693 468.144, 110.265 478.999, 113 479.778 C 117.278 480.996, 508 481.163, 508 479.946 C 508 479.361, 508.427 479.146, 508.950 479.469 C 509.472 479.792, 510.342 479.230, 510.882 478.220 C 511.874 476.368, 512.268 402.434, 512.054 258.740 C 511.974 205.526, 511.646 187.300, 510.731 185.240 C 509.259 181.924, 507.707 180.246, 502.579 176.423 L 498.659 173.500 473.720 173.159 C 446.656 172.789, 442.887 173.113, 439.944 176.056 C 437.936 178.064, 437.230 184, 439 184 C 439.550 184, 440 184.603, 440 185.339 C 440 188.455, 444.978 189.063, 469.683 188.965 C 487.235 188.894, 494.539 189.202, 495.567 190.056 C 496.798 191.077, 497 209.675, 497 321.689 L 497 452.132 491.941 445.816 C 489.158 442.342, 486.458 439.350, 485.941 439.167 C 485.423 438.983, 485 438.347, 485 437.753 C 485 436.776, 473.739 423.359, 471.684 421.888 C 471.214 421.552, 470.980 421.019, 471.165 420.704 C 471.349 420.389, 469.587 418.065, 467.250 415.539 C 464.912 413.013, 463 410.682, 463 410.359 C 463 409.876, 455.286 400.522, 451.500 396.415 C 450.950 395.818, 449.600 394.081, 448.500 392.554 C 447.400 391.028, 446.050 389.265, 445.500 388.638 C 444.950 388.011, 442.710 385.248, 440.523 382.499 C 438.335 379.749, 436.039 377.050, 435.419 376.500 C 434.800 375.950, 433.615 374.478, 432.787 373.229 C 431.959 371.980, 429.643 369.187, 427.641 367.022 C 425.638 364.858, 424 362.791, 424 362.429 C 424 362.068, 421.638 359.021, 418.750 355.659 C 412.852 348.791, 412.128 347.912, 405.447 339.500 C 395.457 326.922, 389.864 321.259, 385.724 319.529 C 382.855 318.331, 374.077 318.065, 335.798 318.020 L 289.351 317.965 286.676 320.264 C 283.437 323.047, 283.111 327.681, 285.911 331.139 L 287.822 333.500 334.604 333.753 C 367.598 333.932, 381.589 334.335, 382.073 335.119 C 383.028 336.663, 389.155 344.095, 391.125 346.098 C 392.019 347.007, 392.919 348.214, 393.125 348.781 C 393.500 349.813, 399.078 356.519, 404.250 362.157 C 405.762 363.805, 407 365.537, 407 366.004 C 407 366.472, 408.186 367.788, 409.635 368.927 C 411.084 370.067, 411.979 371, 411.623 371 C 410.988 371, 416.792 378.434, 423.890 386.710 C 427.446 390.857, 428.441 392.074, 435.573 401 C 437.550 403.475, 439.919 406.400, 440.836 407.500 C 441.753 408.600, 444.301 411.750, 446.497 414.500 C 448.694 417.250, 451.211 420.175, 452.089 421 C 452.968 421.825, 453.870 423.010, 454.093 423.633 C 454.534 424.861, 460.831 432.536, 465.250 437.232 C 466.762 438.839, 468 440.537, 468 441.004 C 468 441.472, 469.148 442.758, 470.552 443.862 C 471.955 444.966, 473.130 446.236, 473.163 446.684 C 473.227 447.539, 477.208 452.544, 482.802 458.805 C 484.619 460.837, 486.547 463.288, 487.088 464.250 C 488.022 465.914, 479.035 466, 304.469 466 C 188.167 466, 120.206 465.646, 119.062 465.033 C 118.068 464.501, 113.186 458.989, 108.214 452.783 C 103.241 446.577, 97.832 440.063, 96.195 438.308 C 94.558 436.552, 93.433 434.900, 93.696 434.638 C 93.959 434.375, 93.009 433.397, 91.587 432.465 C 90.164 431.533, 89 430.246, 89 429.606 C 89 428.965, 88.100 427.793, 87 427 C 85.900 426.207, 85 425.156, 85 424.665 C 85 424.174, 82.823 421.235, 80.161 418.136 C 77.500 415.036, 74.462 411.437, 73.411 410.138 C 72.360 408.840, 71.045 407.265, 70.489 406.638 C 69.933 406.012, 67.160 402.523, 64.327 398.883 C 61.494 395.244, 58.124 391.120, 56.838 389.718 C 55.552 388.317, 52.700 384.838, 50.500 381.987 C 48.300 379.137, 45.250 375.386, 43.722 373.652 C 42.194 371.918, 40.354 369.825, 39.634 369 C 38.914 368.175, 36.509 365.025, 34.290 362 C 32.072 358.975, 28.849 355.042, 27.128 353.259 C 25.408 351.477, 24 349.759, 24 349.442 C 24 349.125, 21.975 346.379, 19.500 343.341 C 15.036 337.861, 14.139 335.650, 15.930 334.543 C 16.442 334.227, 70.562 333.979, 136.197 333.992 C 246.890 334.014, 255.713 333.892, 258.016 332.316 C 259.382 331.381, 260.831 330.140, 261.235 329.558 C 262.654 327.515, 261.979 322.894, 259.943 320.708 L 257.886 318.500 190.443 318.229 L 123 317.959 123 289.479 L 123 261 169.750 260.944 C 203.235 260.903, 217.484 260.548, 219.967 259.694 C 226.506 257.442, 231.258 246.908, 228.851 240.001 C 228.351 238.568, 224.417 233.891, 220.109 229.608 L 212.276 221.821 215.138 218.688 C 216.712 216.964, 218 215.228, 218 214.829 C 218 214.430, 219.012 212.997, 220.250 211.645 C 222.180 209.537, 231.738 191.526, 234.124 185.500 C 235.060 183.137, 237.376 174.934, 237.513 173.500 C 237.565 172.950, 238.116 170.250, 238.737 167.500 C 239.359 164.750, 239.907 161.825, 239.957 161 C 240.006 160.175, 240.148 157.250, 240.273 154.500 L 240.500 149.500 253.605 150 L 266.709 150.500 277.937 161.212 C 284.112 167.104, 288.869 172.402, 288.509 172.986 C 287.788 174.151, 286.637 182.053, 286.612 186 C 286.531 199.138, 294.280 211.054, 307.145 217.574 C 317.401 222.771, 334.587 221.235, 342.500 214.413 C 344.150 212.991, 345.991 211.529, 346.592 211.164 C 347.858 210.394, 354.939 200.206, 355.125 198.888 C 355.194 198.400, 355.306 197.588, 355.375 197.083 C 355.444 196.579, 355.837 195.829, 356.250 195.417 C 356.663 195.004, 357 193.279, 356.999 191.583 L 356.999 188.500 383.212 188.783 C 412.591 189.101, 414.243 188.824, 416.070 183.287 C 417.073 180.250, 416.966 179.432, 415.273 177.164 C 414.199 175.725, 412.235 174.244, 410.910 173.873 C 409.584 173.503, 396.575 173.143, 382 173.074 L 355.500 172.948 353.674 168.988 C 351.128 163.465, 344.133 156.575, 337.825 153.378 C 333.448 151.159, 330.913 150.625, 323.588 150.380 C 318.686 150.216, 314.186 150.388, 313.588 150.762 C 312.990 151.136, 311.620 151.579, 310.543 151.746 C 309.467 151.914, 308.342 152.377, 308.043 152.775 C 307.745 153.174, 306.857 153.639, 306.070 153.810 C 305.284 153.980, 303.414 154.993, 301.916 156.060 C 300.417 157.127, 298.811 157.998, 298.346 157.995 C 297.881 157.992, 292.266 153.090, 285.869 147.103 C 272.275 134.380, 271.292 134, 251.951 134 C 243.084 134, 239.987 133.677, 239.949 132.750 C 239.414 119.576, 233.255 101.971, 222.826 83.803 C 220.541 79.822, 215.901 76.952, 212.983 77.715 C 207.502 79.148, 205.084 86.529, 208.774 90.561 C 210.946 92.935, 218.293 107.791, 220.443 114.158 C 221.309 116.720, 222.475 121.220, 223.034 124.158 C 223.594 127.096, 224.318 130.850, 224.645 132.500 C 225.636 137.511, 225.307 156.197, 224.125 162.023 C 223.513 165.035, 222.853 168.400, 222.657 169.500 C 222.461 170.600, 222.057 172.175, 221.760 173 C 221.463 173.825, 220.430 176.750, 219.464 179.500 C 215.462 190.891, 207.341 204.464, 199.423 213 C 196.457 216.197, 195.125 218.586, 194.825 221.250 C 194.592 223.313, 194.761 225, 195.201 225 C 195.640 225, 195.888 225.359, 195.750 225.798 C 195.613 226.237, 199.431 230.594, 204.235 235.480 C 209.039 240.366, 212.844 244.490, 212.690 244.644 C 212.300 245.034, 113.962 245.006, 111.500 244.615 C 104.912 243.569, 101.070 242.679, 97.750 241.429 C 95.687 240.652, 94 240.293, 94 240.631 C 94 240.968, 93.325 240.685, 92.500 240 C 91.675 239.315, 91 239.013, 91 239.329 C 91 239.644, 86.796 237.755, 81.658 235.131 C 67.385 227.842, 54.764 217.461, 46.955 206.586 C 45.143 204.064, 43.261 202, 42.771 202 C 42.282 202, 42.162 201.547, 42.504 200.993 C 42.847 200.439, 42.426 199.717, 41.569 199.388 C 40.712 199.059, 40.241 198.419, 40.522 197.964 C 40.803 197.510, 40.632 196.891, 40.143 196.588 C 39.215 196.015, 35.086 187.678, 33.166 182.500 C 32.554 180.850, 31.528 178.150, 30.885 176.500 C 30.243 174.850, 29.633 172.825, 29.530 172 C 29.427 171.175, 28.539 166.920, 27.557 162.545 C 26.180 156.405, 25.889 151.956, 26.283 143.045 C 26.563 136.695, 27.043 130.825, 27.349 130 C 27.844 128.666, 28.207 126.882, 29.487 119.500 C 29.677 118.400, 29.905 117.500, 29.993 117.500 C 30.081 117.500, 30.302 116.727, 30.483 115.782 C 31.192 112.093, 37.680 99.112, 42.619 91.500 C 47.375 84.170, 60.967 68.900, 63.613 67.914 C 64.225 67.687, 66.025 66.489, 67.613 65.253 C 72.086 61.772, 77.994 58, 78.973 58 C 79.459 58, 80.452 57.437, 81.179 56.749 C 82.949 55.074, 93.661 51.271, 103.500 48.825 C 112.052 46.699, 134.895 45.630, 140.500 47.093 C 144.166 48.050, 149.886 49.124, 152.250 49.299 C 153.213 49.370, 154 49.726, 154 50.089 C 154 50.668, 158.678 52.137, 161.500 52.444 C 162.050 52.504, 163.175 52.978, 164 53.498 C 164.825 54.018, 165.992 54.519, 166.593 54.610 C 167.195 54.702, 169.548 55.952, 171.823 57.389 C 174.099 58.825, 176.172 60, 176.430 60 C 176.688 60, 178.900 61.350, 181.345 63 C 188.548 67.862, 194.462 66.767, 196.465 60.201 C 197.466 56.916, 195.041 53.756, 187.857 48.984 C 177.643 42.200, 160.462 35.039, 151 33.622 C 149.075 33.334, 145.890 32.691, 143.922 32.193 C 139.177 30.993, 112.571 30.926, 107.500 32.101 M 347 72.735 C 341.524 74.844, 340.505 81.508, 344.934 86.248 L 347.868 89.387 344.934 92.728 C 340.732 97.514, 340.856 102.323, 345.250 105.037 C 349.243 107.502, 352.440 106.925, 356.397 103.024 L 359.293 100.168 362.460 103.526 C 365.160 106.389, 366.134 106.811, 369.064 106.386 C 376.115 105.363, 378.227 97.327, 372.607 92.905 C 371.173 91.778, 370.007 90.550, 370.016 90.177 C 370.025 89.805, 371.375 87.977, 373.016 86.114 C 376.322 82.364, 376.474 81.659, 374.935 77.244 C 373.567 73.319, 369.208 71.303, 365.841 73.038 C 364.553 73.702, 362.276 75.386, 360.780 76.781 C 358.425 78.976, 357.975 79.097, 357.430 77.679 C 356.784 75.994, 350.955 71.938, 349.382 72.079 C 348.897 72.122, 347.825 72.418, 347 72.735 M 93 92.765 C 86.654 93.598, 77.642 99.368, 76.384 103.402 C 76.025 104.556, 75.325 105.761, 74.830 106.081 C 72.451 107.615, 72.131 119, 74.321 124.197 C 75.086 126.014, 79.761 131.626, 84.709 136.668 L 93.706 145.836 85.255 154.168 C 76.342 162.955, 73.088 168.420, 72.981 174.782 C 72.892 180.060, 74.050 186, 75.168 186 C 75.691 186, 75.840 186.450, 75.500 187 C 75.160 187.550, 75.385 188, 76 188 C 76.615 188, 76.877 188.391, 76.582 188.868 C 76.287 189.345, 77.456 190.808, 79.181 192.118 C 80.906 193.428, 82.919 195.094, 83.656 195.819 C 87.200 199.310, 98.240 199.982, 104.599 197.095 C 106.853 196.071, 109.700 193.825, 110.925 192.105 C 112.151 190.384, 113.638 189.276, 114.231 189.643 C 114.830 190.013, 115.023 189.846, 114.666 189.268 C 114.089 188.335, 116.805 185.138, 117.654 185.750 C 117.844 185.887, 117.888 185.800, 117.750 185.556 C 117.320 184.791, 124.246 178.088, 125.248 178.299 C 125.772 178.410, 129.643 181.907, 133.850 186.072 C 144.782 196.892, 146.952 198.199, 154.852 198.721 C 163.855 199.316, 171.033 195.801, 175.332 188.692 C 179.721 181.436, 179.794 168.937, 175.474 164.616 C 174.663 163.806, 174 162.783, 174 162.342 C 174 161.902, 170.307 157.829, 165.793 153.292 L 157.586 145.042 160.446 142.056 C 162.019 140.415, 163.616 139.263, 163.995 139.497 C 164.373 139.731, 166.217 138.252, 168.092 136.211 L 171.500 132.500 167.947 135.500 C 165.993 137.150, 167.015 135.944, 170.219 132.820 C 173.422 129.697, 176.657 125.647, 177.408 123.820 C 179.099 119.706, 178.956 106.819, 177.213 106.238 C 176.546 106.015, 176 105.242, 176 104.519 C 176 102.739, 170.869 97, 169.277 97 C 168.575 97, 168 96.580, 168 96.067 C 168 94.675, 162.271 93.074, 156.500 92.854 C 152.588 92.705, 145 94.806, 145 96.039 C 145 96.567, 144.347 97, 143.550 97 C 142.752 97, 141.727 97.563, 141.272 98.250 C 140.818 98.938, 137.213 102.621, 133.262 106.435 L 126.078 113.369 116.656 104.255 C 107.460 95.358, 105.957 94.461, 97.500 92.824 C 96.400 92.611, 94.375 92.584, 93 92.765 M 415.855 100.479 C 415.512 100.822, 414.167 101.228, 412.866 101.382 C 407.055 102.071, 394.152 110.818, 395.567 113.109 C 395.870 113.599, 395.751 114, 395.303 114 C 394.525 114, 392.028 118.830, 391.168 122 C 390.245 125.400, 389.863 134.184, 390.569 135.783 C 390.986 136.727, 391.373 137.725, 391.429 138 C 391.485 138.275, 391.799 138.950, 392.127 139.500 C 392.455 140.050, 392.994 141.625, 393.325 143 C 394.095 146.202, 400.221 152.545, 406.083 156.212 C 413.142 160.627, 427.315 160.237, 434.813 155.422 C 438.786 152.870, 443.977 147.682, 443.989 146.250 C 443.995 145.563, 444.378 145, 444.839 145 C 447.125 145, 449.576 135.183, 449.265 127.275 C 448.977 119.962, 441.861 107, 438.134 107 C 437.510 107, 437 106.550, 437 106 C 437 105.450, 436.325 105, 435.500 105 C 434.675 105, 434 104.640, 434 104.201 C 434 102.158, 417.550 98.784, 415.855 100.479 M 89.686 110.641 C 86.102 115.393, 87.211 117.523, 100 130.460 C 110.885 141.470, 112 142.934, 112 146.216 C 112 148.205, 111.662 149.990, 111.250 150.181 C 110.838 150.373, 105.438 155.741, 99.250 162.111 C 89.993 171.641, 88 174.224, 88 176.691 C 88 180.434, 91.190 183.480, 95.194 183.560 C 97.689 183.610, 100.013 181.803, 109.340 172.560 C 115.478 166.477, 121.676 160.894, 123.114 160.154 C 126.872 158.218, 129.652 159.982, 141 171.500 C 149.727 180.358, 154.352 184, 156.874 184 C 157.409 184, 159.147 182.906, 160.735 181.569 C 165.964 177.169, 164.782 174.486, 151.845 161.389 C 145.605 155.073, 140.205 149.138, 139.845 148.202 C 138.501 144.711, 140.514 141.660, 151.615 130.362 C 157.877 123.989, 163.045 118.487, 163.099 118.137 C 164.091 111.770, 162.702 109.490, 157.159 108.382 C 154.126 107.775, 153.302 108.367, 142.224 119.120 C 128.865 132.087, 127.046 133.364, 123.783 132.071 C 122.527 131.573, 117 126.597, 111.500 121.012 C 106 115.428, 100.290 110.218, 98.811 109.435 C 95.156 107.500, 91.712 107.955, 89.686 110.641 M 414.302 117.004 C 408.490 119.648, 405.801 123.391, 405.774 128.874 C 405.742 135.221, 405.979 135.810, 410.264 140.060 C 413.134 142.907, 415.032 143.894, 418.264 144.219 C 420.647 144.459, 422.821 144.177, 423.235 143.573 C 423.639 142.983, 423.976 142.863, 423.985 143.307 C 424.018 145.066, 430.213 140.306, 432.181 137.009 C 436.048 130.526, 434.137 122.688, 427.597 118.207 C 423.340 115.290, 418.943 114.892, 414.302 117.004 M 312.885 167.677 C 309.172 169.786, 304.024 174.603, 303.990 176 C 303.984 176.275, 303.352 178.563, 302.587 181.085 C 299.136 192.452, 309.615 205.462, 321.969 205.150 C 328.476 204.985, 330 204.758, 330 203.955 C 330 203.563, 331.317 202.697, 332.928 202.030 C 339.883 199.149, 344.129 185.856, 340.604 178 C 338.596 173.525, 337.387 172.088, 332.578 168.459 C 327.276 164.458, 319.122 164.135, 312.885 167.677 M 31 257.715 C 30.175 258.044, 28.689 259.239, 27.697 260.370 C 24.816 263.659, 26.062 268.462, 31.156 273.697 L 35.500 278.162 31.198 282.013 C 28.151 284.740, 26.727 286.904, 26.317 289.432 C 25.939 291.761, 26.131 293, 26.869 293 C 27.491 293, 28 293.603, 28 294.339 C 28 295.711, 32.026 298, 34.439 298 C 35.179 298, 38.082 295.933, 40.892 293.407 L 46 288.815 51.108 293.407 C 53.918 295.933, 56.858 298, 57.643 298 C 58.790 298, 61.480 296.644, 64.851 294.368 C 65.044 294.238, 65.409 292.600, 65.661 290.728 C 66.057 287.790, 65.507 286.655, 61.636 282.413 L 57.152 277.500 61.021 273.500 C 67.016 267.301, 67.009 260.245, 61.006 258.152 C 57.507 256.932, 53.259 258.907, 49.386 263.553 L 46.537 266.969 42.019 262.549 C 37.536 258.166, 33.885 256.564, 31 257.715 M 0.300 338 C 0.300 341.025, 0.487 342.262, 0.716 340.750 C 0.945 339.238, 0.945 336.762, 0.716 335.250 C 0.487 333.738, 0.300 334.975, 0.300 338 M 282.309 387.095 C 280.553 387.608, 278.111 389.440, 276.881 391.168 C 274.260 394.848, 273.555 402.412, 275.638 404.495 C 276.387 405.244, 277 406.155, 277 406.520 C 277 407.732, 287.259 421, 288.197 421 C 288.703 421, 288.838 421.453, 288.496 422.007 C 288.153 422.561, 288.577 423.284, 289.437 423.614 C 290.296 423.944, 291 424.653, 291 425.189 C 291 426.219, 298.626 436, 304.610 442.647 C 309.291 447.845, 311.098 448, 367.061 448 C 401.331 448, 419.823 447.639, 421.685 446.933 C 425.045 445.660, 429.135 442.028, 428.453 440.924 C 428.186 440.492, 428.425 439.856, 428.984 439.510 C 430.475 438.589, 430.223 430.366, 428.656 428.799 C 427.917 428.060, 426.157 425.625, 424.745 423.387 C 423.332 421.150, 421.574 418.685, 420.838 417.910 C 419.102 416.080, 413.920 409.428, 412 406.563 C 409.910 403.443, 405.146 397.550, 401 392.955 C 394.483 385.732, 397.492 386.061, 338.537 386.115 C 308.897 386.142, 284.092 386.575, 282.309 387.095 M 295.425 405.881 C 296.772 408.015, 299.028 411.006, 300.437 412.527 C 301.847 414.048, 303 415.629, 303 416.040 C 303 416.452, 304.413 418.299, 306.141 420.144 C 307.868 421.990, 310.325 425.150, 311.600 427.166 C 312.876 429.182, 314.372 431.112, 314.926 431.454 C 316.065 432.158, 410.122 432.211, 410.826 431.508 C 411.219 431.115, 403.683 420.385, 402.041 419 C 400.440 417.649, 395 410.088, 395 409.213 C 395 408.664, 394.325 407.955, 393.500 407.638 C 392.675 407.322, 392 406.567, 392 405.960 C 392 402.088, 390.871 402, 341.059 402 L 292.975 402 295.425 405.881 M 217 407.699 C 212.320 409.389, 210.641 416.101, 213.894 420.117 C 215.631 422.263, 216.696 422.487, 226.811 422.833 C 243.077 423.389, 248.219 420.828, 246.506 413.026 C 245.477 408.344, 241.419 406.982, 228.782 407.079 C 223.127 407.122, 217.825 407.402, 217 407.699 M 206.337 433.217 C 204.274 434.181, 203.108 436.371, 202.573 440.286 C 202.439 441.268, 203.378 443.293, 204.660 444.786 L 206.990 447.500 231.468 447.800 C 249.780 448.024, 256.520 447.781, 258.223 446.837 C 259.475 446.143, 260.790 445.655, 261.143 445.752 C 262.396 446.096, 264.217 440.003, 263.599 437.538 C 262.329 432.477, 259.230 431.928, 232.742 432.073 C 218.791 432.149, 207.582 432.635, 206.337 433.217" stroke="none" fill="#9474fc" fill-rule="evenodd"/></svg>