<svg xmlns="http://www.w3.org/2000/svg" width="554" height="554"><path fill="#9474FE" d="M275.587 133.968c21.313.632 41.487 5.031 60.572 14.733q2.955 1.513 5.83 3.169 2.879 1.656 5.67 3.45 2.793 1.796 5.494 3.726 2.7 1.93 5.304 3.99 2.604 2.06 5.103 4.245 2.498 2.185 4.889 4.49 2.388 2.305 4.662 4.725 2.271 2.42 4.423 4.947 2.153 2.528 4.178 5.158 2.024 2.631 3.92 5.358 1.891 2.726 3.65 5.542 1.756 2.816 3.374 5.715 1.617 2.9 3.091 5.874 1.474 2.975 2.798 6.018 1.327 3.044 2.501 6.149 1.175 3.104 2.197 6.263c12.814-7.487 27.522-16.596 37.76-27.405 2.205-2.328 6.114-6.637 5.828-10.03-.13-1.55-.77-2.555-1.916-3.56-8.053-7.047-30.31.079-40.19.568-1.956.097-5.003-.074-6.504-1.542-1.255-1.227-1.197-2.055-1.269-3.706 1.12-2.823 2.93-4.472 5.7-5.712 5.13-2.296 12.186-3.135 17.696-4.474 23.636-5.743 73.152-17.417 95.46-8.838 4.132 1.59 8.099 4.313 9.866 8.522 1.443 3.434.961 7.222-.371 10.607-17.62 44.777-151.154 111.579-197.939 132.146-58.97 27.434-222.405 85.202-283.409 70.593-5.346-1.282-12.067-3.454-15.001-8.481-1.779-3.047-1.67-6.452-.72-9.748 8.57-29.794 86.95-71.942 114.297-86.876-.459-3.383-.85-6.755-.957-10.17-1.044-33.47 13.427-68.91 36.31-93.124 26.104-27.62 60.009-41.218 97.703-42.322ZM111.43 335.965c15.119-.216 30.8-3.263 45.42-7.016-5.33-9.585-8.808-19.127-11.323-29.792-.452-1.917-.797-6.842-2.55-7.664-.044-.022-.095-.022-.143-.036-10.778 6.758-42.082 24.62-45.21 36.79-.406 1.585-.318 3.159.642 4.527 1.29 1.84 4.06 2.535 6.142 2.776 2.316.268 4.69.462 7.022.415ZM405.957 285.845l.862.23c.036.08.08.16.113.243 1.729 4.2-4.883 24.138-6.709 28.922q-1.19 3.108-2.531 6.152-1.341 3.044-2.831 6.022-1.488 2.975-3.122 5.872-1.634 2.9-3.407 5.715-1.773 2.817-3.684 5.54-1.909 2.726-3.95 5.354-2.039 2.63-4.208 5.153-2.166 2.526-4.457 4.941-2.288 2.413-4.692 4.715-2.405 2.299-4.917 4.479-2.515 2.18-5.133 4.232-2.617 2.056-5.335 3.978-2.714 1.923-5.52 3.71-2.81 1.786-5.698 3.434-2.892 1.648-5.859 3.152-2.97 1.502-6.008 2.859c-34.068 15.23-70.309 14.035-104.764.847-5.27-2.37-10.223-5.071-15.126-8.132 14.735-2.75 29.338-8.737 43.284-14.158 54.103-21.024 107.505-47.846 153.692-83.26Z"/></svg>